<svg width="421.285" height="421.285" xmlns="http://www.w3.org/2000/svg">

 <g>
  <title>background</title>
  <rect fill="none" id="canvas_background" height="602" width="802" y="-1" x="-1"/>
 </g>
 <g>
  <title>Layer 1</title>
  <g id="svg_1">
   <g id="svg_2">
    <path fill="#ffffff" id="svg_3" d="m418.742,203.942c-0.3,-0.2 -0.5,-0.5 -0.8,-0.8l-50.6,-44.8c-4.1,-3.6 -10.5,-3.2 -14.1,0.9c-3.6,4.1 -3.2,10.4 0.8,14l30.9,27.4l-164.3,0l0,-164.3l27.3,30.8c3.7,4.1 10,4.5 14.1,0.8s4.5,-10 0.8,-14.1l-44.8,-50.5c-3.7,-4.1 -10,-4.5 -14.1,-0.8c-0.3,0.3 -0.6,0.5 -0.8,0.8l-44.8,50.5c-3.6,4.1 -3.2,10.5 0.9,14.1c4.1,3.6 10.4,3.2 14,-0.8l27.3,-30.8l0,164.3l-164.2,0l30.8,-27.3c4.1,-3.7 4.5,-10 0.8,-14.1c-3.7,-4.1 -10,-4.5 -14.1,-0.8l-50.5,44.8c-4.1,3.7 -4.5,10 -0.8,14.1c0.3,0.3 0.5,0.6 0.8,0.8l50.5,44.8c4.1,3.6 10.5,3.2 14.1,-0.9c3.6,-4.1 3.2,-10.4 -0.8,-14l-30.8,-27.4l164.3,0l0,164.3l-27.3,-30.8c-3.7,-4.1 -10,-4.5 -14.1,-0.8c-4.1,3.7 -4.5,10 -0.8,14.1l44.8,50.5c3.7,4.1 10,4.5 14.1,0.8c0.3,-0.3 0.6,-0.5 0.8,-0.8l44.8,-50.5c3.6,-4.1 3.2,-10.5 -0.9,-14.1c-4.1,-3.6 -10.4,-3.2 -14,0.8l-27.4,30.8l0,-164.3l164.3,0l-30.8,27.3c-4.1,3.7 -4.5,10 -0.8,14.1c3.7,4.1 10,4.5 14.1,0.8l50.5,-44.8c4.1,-3.7 4.5,-10 0.8,-14.1z"/>
   </g>
  </g>
  <g id="svg_4"/>
  <g id="svg_5"/>
  <g id="svg_6"/>
  <g id="svg_7"/>
  <g id="svg_8"/>
  <g id="svg_9"/>
  <g id="svg_10"/>
  <g id="svg_11"/>
  <g id="svg_12"/>
  <g id="svg_13"/>
  <g id="svg_14"/>
  <g id="svg_15"/>
  <g id="svg_16"/>
  <g id="svg_17"/>
  <g id="svg_18"/>
 </g>
</svg>